:SAMPLES-PER-SECOND 30
:FULLY-SPECIFIED
:DEGREES
1
root  -76.6506 20.0225 -0.367245 165.478 87.2309 118.32
RightUpLeg  -49.2845 -3.62083 3.54664
RightLeg  116.017 8.4337 6.00974
RightFoot  -23.7436 -0.522979 -5.60275
RightToes  -4.65663e-010 -1.59028e-015 9.93923e-017
Spine  54.0962 -1.36039 -3.89669
Spine1  -20.9549 -3.28189 6.29733
HEad  -59.923 8.85994 4.25017
LeftShoulder1  9.93923e-017 0 1.22299e-017
LeftArm  5.37141 -60.2573 -83.2805
LeftForeArm  9.72358 1.22244 4.40193
LeftHand  -1.88442 0.519189 31.1377
RightShoulder  1.98785e-016 -4.96962e-017 1.55301e-017
RightArm  -8.37557 16.8722 96.8412
RightForeArm  29.3215 1.27372 2.73181
RightHand  10.9419 -22.9808 -52.1253
LeftUpLeg  -39.5695 -12.3586 -1.78154
LeftLeg  95.6538 -12.8112 -2.93537
LeftFoot  -1.27189 0.170264 -1.74887
LeftToes  3.34876e-009 -9.68256e-011 -6.12847e-011
2
root  -76.1042 19.9956 -0.545984 -170.914 86.5415 142.793
RightUpLeg  -54.7926 -3.7185 4.53598
RightLeg  122.045 6.98321 7.11263
RightFoot  -25.2664 -0.761128 -7.07327
RightToes  -4.65663e-010 -1.59028e-015 9.93923e-017
Spine  54.0768 -1.65977 -2.17974
Spine1  -19.9033 -2.75332 6.45691
HEad  -59.9236 8.39282 3.67664
LeftShoulder1  9.93923e-017 0 1.22299e-017
LeftArm  6.7493 -59.6201 -85.7918
LeftForeArm  9.94272 1.19335 4.32136
LeftHand  -2.18933 0.0715513 32.6104
RightShoulder  1.98785e-016 -4.96962e-017 1.55301e-017
RightArm  -8.30767 16.0442 94.9316
RightForeArm  29.9489 1.66832 3.1546
RightHand  11.0495 -23.031 -52.4968
LeftUpLeg  -37.1347 -13.3391 -0.822961
LeftLeg  94.1677 -12.8176 -3.0814
LeftFoot  -1.65976 0.241908 -2.46
LeftToes  3.34876e-009 -9.68256e-011 -6.12847e-011
3
root  -75.4044 19.9921 -0.724472 -148.024 84.6414 166.81
RightUpLeg  -61.01 -3.57403 6.48244
RightLeg  127.686 5.75156 7.55974
RightFoot  -27.0269 -0.705608 -5.79001
RightToes  -4.65663e-010 -1.59028e-015 9.93923e-017
Spine  53.8812 -2.28344 0.586995
Spine1  -18.0127 -2.10265 6.83289
HEad  -60.4923 8.04198 3.20653
LeftShoulder1  9.93923e-017 0 1.22299e-017
LeftArm  8.7288 -58.966 -89.5127
LeftForeArm  10.3639 1.22144 4.43708
LeftHand  -2.47311 -0.241428 34.4518
RightShoulder  1.98785e-016 -4.96962e-017 1.55301e-017
RightArm  -8.3486 15.3067 92.7607
RightForeArm  30.0479 1.94869 3.47421
RightHand  11.3553 -23.213 -53.4041
LeftUpLeg  -34.2143 -14.6014 1.32393
LeftLeg  92.3021 -12.8242 -3.45159
LeftFoot  -1.8886 0.274935 -2.78793
LeftToes  3.34876e-009 -9.68256e-011 -6.12847e-011
4
root  -74.6641 20.0136 -0.844098 -137.323 82.2697 178.796
RightUpLeg  -66.1114 -2.97747 8.41786
RightLeg  130.889 6.00709 6.61723
RightFoot  -28.5181 -0.732583 -5.38545
RightToes  -4.65663e-010 -1.59028e-015 9.93923e-017
Spine  54.1124 -2.74515 3.14318
Spine1  -16.6818 -1.37257 7.70708
HEad  -60.7989 7.61719 2.83959
LeftShoulder1  9.93923e-017 0 1.22299e-017
LeftArm  9.77961 -57.5859 -93.0024
LeftForeArm  10.7968 1.23769 4.51583
LeftHand  -2.60952 -0.228569 36.2582
RightShoulder  1.98785e-016 -4.96962e-017 1.55301e-017
RightArm  -8.50859 14.3301 90.8944
RightForeArm  29.7655 1.63595 3.97984
RightHand  11.4754 -23.329 -53.6197
LeftUpLeg  -31.0632 -15.8024 3.61098
LeftLeg  90.1747 -12.8676 -3.63616
LeftFoot  -1.92949 0.219535 -2.25602
LeftToes  3.34876e-009 -9.68256e-011 -6.12847e-011
5
root  -73.8762 20.0491 -0.948274 -130.501 79.7348 -171.68
RightUpLeg  -68.3916 -2.18213 10.4547
RightLeg  131.276 7.58578 4.81517
RightFoot  -29.1701 -0.86855 -6.12883
RightToes  -4.65663e-010 -1.59028e-015 9.93923e-017
Spine  56.2106 -3.14381 5.7317
Spine1  -16.4227 -0.305976 8.68448
HEad  -60.2268 6.93337 2.24914
LeftShoulder1  9.93923e-017 0 1.22299e-017
LeftArm  9.9007 -55.5653 -95.4957
LeftForeArm  11.1562 1.16505 4.30451
LeftHand  -2.68525 -0.16729 37.5902
RightShoulder  1.98785e-016 -4.96962e-017 1.55301e-017
RightArm  -7.08007 12.7814 89.0412
RightForeArm  28.7647 1.87249 4.70384
RightHand  10.8196 -22.9409 -51.6503
LeftUpLeg  -26.1146 -16.7113 5.98968
LeftLeg  87.6275 -12.9276 -3.22003
LeftFoot  -2.06359 0.191864 -1.99854
LeftToes  3.34876e-009 -9.68256e-011 -6.12847e-011
6
root  -73.0486 19.9961 -0.992238 -128.305 77.4949 -167.037
RightUpLeg  -69.2959 -2.08448 11.9086
RightLeg  129.95 9.3191 2.99919
RightFoot  -27.7875 -0.813766 -6.27792
RightToes  -4.65663e-010 -1.59028e-015 9.93923e-017
Spine  57.4131 -3.48548 7.45958
Spine1  -15.494 0.313263 10.0696
HEad  -59.4145 6.43012 1.64023
LeftShoulder1  9.93923e-017 0 1.22299e-017
LeftArm  9.98663 -53.6828 -97.0501
LeftForeArm  11.7659 1.03481 3.92387
LeftHand  -2.82677 -0.254048 38.7942
RightShoulder  1.98785e-016 -4.96962e-017 1.55301e-017
RightArm  -2.88194 10.526 87.3136
RightForeArm  25.7263 4.7188 4.352
RightHand  9.5992 -22.0017 -48.2719
LeftUpLeg  -21.2255 -17.6793 7.83814
LeftLeg  84.796 -12.9363 -2.44217
LeftFoot  -1.93854 0.226147 -2.30722
LeftToes  3.34876e-009 -9.68256e-011 -6.12847e-011
7
root  -72.1803 19.9019 -1.00609 -127.477 75.5207 -164.535
RightUpLeg  -68.9774 -2.61461 13.142
RightLeg  128.462 9.95725 2.33659
RightFoot  -23.0485 -0.574975 -6.526
RightToes  -4.65663e-010 -1.59028e-015 9.93923e-017
Spine  57.4517 -4.27915 8.88337
Spine1  -13.92 0.207227 10.6098
HEad  -59.0295 6.35617 1.62781
LeftShoulder1  9.93923e-017 0 1.22299e-017
LeftArm  9.48626 -51.7514 -97.5887
LeftForeArm  13.1867 0.910647 3.61772
LeftHand  -3.0367 -0.389341 40.4594
RightShoulder  1.98785e-016 -4.96962e-017 1.55301e-017
RightArm  4.23495 7.12917 86.3428
RightForeArm  18.3735 10.6246 0.64428
RightHand  8.65142 -21.13 -45.7469
LeftUpLeg  -17.0748 -18.4918 9.52954
LeftLeg  81.7101 -12.8869 -1.79829
LeftFoot  -1.44795 0.219951 -2.14221
LeftToes  3.34876e-009 -9.68256e-011 -6.12847e-011
8
root  -71.2643 19.7324 -0.967524 -126.938 73.9561 -163.53
RightUpLeg  -67.8116 -3.24775 14.3236
RightLeg  127.869 9.30703 3.16012
RightFoot  -16.5106 -0.227555 -7.8864
RightToes  -4.65663e-010 -1.59028e-015 9.93923e-017
Spine  56.5284 -5.2866 9.9381
Spine1  -12.878 -0.368674 10.1447
HEad  -58.798 6.30538 2.22658
LeftShoulder1  9.93923e-017 0 1.22299e-017
LeftArm  7.34413 -48.9794 -96.9305
LeftForeArm  15.4427 0.786887 3.37822
LeftHand  -3.22294 -0.449936 42.2518
RightShoulder  1.98785e-016 -4.96962e-017 1.55301e-017
RightArm  16.5632 2.7412 86.5338
RightForeArm  3.49131 16.4686 -8.67921
RightHand  8.38249 -20.8427 -45.0988
LeftUpLeg  -14.0694 -19.048 11.109
LeftLeg  78.4712 -12.8174 -1.45006
LeftFoot  -1.08097 0.143436 -1.36083
LeftToes  3.34876e-009 -9.68256e-011 -6.12847e-011
9
root  -70.3054 19.3878 -0.753042 -127.816 73.4326 -165.733
RightUpLeg  -66.669 -3.49456 15.361
RightLeg  127.756 8.96303 3.5934
RightFoot  -12.6091 0.0378434 -8.98952
RightToes  -4.65663e-010 -1.59028e-015 9.93923e-017
Spine  54.0819 -5.14485 9.21041
Spine1  -12.5962 -0.956938 10.6456
HEad  -58.0307 5.83211 2.90071
LeftShoulder1  9.93923e-017 0 1.22299e-017
LeftArm  4.45427 -45.3521 -95.8656
LeftForeArm  17.9538 0.60416 2.98039
LeftHand  -3.35625 -0.479629 43.5899
RightShoulder  1.98785e-016 -4.96962e-017 1.55301e-017
RightArm  25.7222 -0.769818 86.8497
RightForeArm  -8.61625 18.8174 -19.0277
RightHand  8.29297 -20.7444 -44.8811
LeftUpLeg  -12.6262 -19.279 11.9724
LeftLeg  75.0905 -12.7467 -1.28371
LeftFoot  -0.921123 0.0858475 -0.808883
LeftToes  3.34876e-009 -9.68256e-011 -6.12847e-011
